<?xml version="1.0" encoding="UTF-8"?>
<svg id="Layer_1" data-name="Layer 1" xmlns="http://www.w3.org/2000/svg" viewBox="0 0 200 200">
  <path d="M153.73,60.86c5.23-1.34,9.04-3.43,14.64-2.32,10.54,2.09,17.33,11.18,16.37,21.94l-26.42,89.38c-2.16,4.7-5.43,7.87-10.09,10.01-.84.38-2.38.29-2.64.51-1.39,1.18,3.03,10.98-4.17,10-2.67-.37-2.59-6.12-3.19-9.16l-76.07-.05c-1.08,2.94-2.27,9.11-5.47,9.17-4.61.1-2.62-1.72-2.35-9.12.03-.79-12.94.41-15.77-.19-3.36-.7-8.29-4.94-8.81-8.51-.57-3.84-.51-16.13,0-19.99,1.11-8.33,7.09-8.28,5.44-9.61-.14-.12-2.49-.03-3.68-.43-23.1-7.77-16.5-42.89-11.38-60.68C30.11,47.24,56.25,23.38,90.61,13.7c15.06-4.24,49.31-8.26,60.88,4.26,8.39,9.08,5,31.63,2.24,42.89ZM145.52,63.6c.35-5.11,2-10.07,2.66-15.12.81-6.19,1.69-13.76-.15-19.75-2.4-7.8-8.47-9.52-15.81-10.64s-16.08-.79-23.57-.02c-1.12.12-2.12.8-3.24.86l13.69,11.37c9.67,9.19,17.72,19.68,24.42,31.2.48.83.86,2.02,2,2.1ZM91.47,21.86c-2.38.43-6.4,2.08-8.86,2.99-21.92,8.18-40.8,25.91-50.33,47.24-.99,2.22-4.64,10.84-3.95,12.43.76,1.77,6.49,8.19,8.21,10.1,4.5,4.98,10.94,11.56,15.96,15.96,1.16,1.02,6.35,5.28,7.26,5.52,1.2.31,2.63-1.17,4.19-1.41,4.16-.62,12.65-.78,17.28-.95,11.47-.43,23.03.49,34.5-.14,10.87-7.66,19.4-20.45,23.45-33.08,1.51-4.71,2.32-6.48.14-11.16-6.31-13.49-24.34-33.13-36.21-42.21-3.74-2.87-6.69-6.17-11.64-5.28ZM58.9,173.02h85.26c.3,0,4.47-2.55,5.04-3.16,1.18-1.27,2.13-3.79,2.74-5.47,9.52-26.09,14.96-55.1,24.38-81.39,2.86-14.05-8.75-20.39-20.78-14.4-3.07,1.53-3.98,4.41-5.25,7.52-4.96,12.12-7.36,28.28-12.51,39.47-1.82,3.96-4.77,6.07-9.09,6.41-18.91,1.49-41.84-2.33-60.16.02-3.22.41-6.03,2.34-7.69,5.07-.34.55-1.94,4.2-1.94,4.44v41.49ZM26.27,94.99c-.06-.07-.79-.87-1.09.17-1.83,6.51-2.53,17.74-1.76,24.44,1.15,10.06,9.61,16.79,19.52,17.02,1.85.04,8.06-.66,8.57-2.45.42-1.48-.08-3.43.29-5.19.29-1.4,3.17-6.02,2.5-6.93-.09-.12-1.79-.6-2.71-1.41-7.35-6.49-16.61-15.98-23.27-23.28-1.03-1.12-1.82-2.11-2.04-2.38ZM128.2,113.75c1.67.29,3-.94,2.73-2.73l-2.73,2.73ZM51.61,145.67c-14.03,1.45-15.6,8.86-14.63,21.47.73,9.45,7.54,4.93,14.63,5.89v-27.36Z"/>
  <path d="M59.17,89.72c-.54-.47.08-1.66-.72-1.5-2.94,1.87-2.24,6.37-6.24,6.16-7.12-.39.42-10.3.26-11.06-.47-2.18-6.64-3.69-4.05-8.78,2.92-5.76,7.68,2.73,8.21,2.73.58,0,7.51-8.12,7.75-8.65.18-.4-5.44-2.35-5.41-6.37.03-3.88,2.96-4.02,6.11-2.52,1.88.9,2.6,3.68,3.46,3.88,1.18.28,8-5.19,7.66-6.73-.48-2.17-8.46-5.31-4.31-9.47,4-4.01,9.01,5.67,11.09,5.22.96-.21,5.04-5.26,6.93-5.88-3.39-2.05-5.98-7.96-.95-9.17,2.76-.66,5.44,4.68,7,5.01,1.96.41,6.82-6.93,10.89-3.65,5.56,4.48-4.79,7.48-5.08,8.76-.42,1.91,5.88,5.28,2.79,9.13-3.85,4.81-7.21-4.23-9.63-4.21-.78,0-6.63,4.38-6.79,5.17-.39,1.95,5.83,5.26,2.75,9.08-4.2,5.21-7.68-4.58-9.6-4.15-.47.11-6.87,6.33-6.87,6.82,0,.9,6.95,4.45,4.14,8.71-2.66,4.03-8.62-3.69-9.16-3.69s-6.72,7.12-6.72,7.75c0,1.33,6.52,3.67,3.99,8.66-1.67,3.29-5.58.4-7.49-1.24Z"/>
</svg>